<?xml version="1.0" encoding="UTF-8"?>
<!DOCTYPE svg PUBLIC "-//W3C//DTD SVG 1.1//EN" "http://www.w3.org/Graphics/SVG/1.1/DTD/svg11.dtd">
<svg version="1.1" xmlns="http://www.w3.org/2000/svg" xmlns:xlink="http://www.w3.org/1999/xlink" x="0" y="0" width="300" height="300" viewBox="0, 0, 300, 300">
  <g id="Layer_1">
    <g id="shape">
      <path d="M112,178 L86,178 C70.536,178 58,165.464 58,150 C58,134.536 70.536,122 86,122 L112,122 C96.536,122 84,109.464 84,94 C84,78.536 96.536,66 112,66 L149,66 C164.464,66 177,78.536 177,94 C177,109.464 164.464,122 149,122 L158,122 C173.464,122 186,134.536 186,150 C186,165.464 173.464,178 158,178 L149,178 C164.464,178 177,190.536 177,206 C177,221.464 164.464,234 149,234 L112,234 C96.536,234 84,221.464 84,206 C84,190.536 96.536,178 112,178 z" fill="#FFFFFF" opacity="0.4"/>
      <path d="M131,178 L114,178 C98.536,178 86,165.464 86,150 C86,134.536 98.536,122 114,122 L131,122 C115.536,122 103,109.464 103,94 C103,78.536 115.536,66 131,66 L168,66 C183.464,66 196,78.536 196,94 C196,109.464 183.464,122 168,122 L186,122 C201.464,122 214,134.536 214,150 C214,165.464 201.464,178 186,178 L168,178 C183.464,178 196,190.536 196,206 C196,221.464 183.464,234 168,234 L131,234 C115.536,234 103,221.464 103,206 C103,190.536 115.536,178 131,178 z" fill="#FFFFFF" opacity="0.5"/>
      <path d="M150,178 L142,178 C126.536,178 114,165.464 114,150 C114,134.536 126.536,122 142,122 L150,122 C134.536,122 122,109.464 122,94 C122,78.536 134.536,66 150,66 L187,66 C202.464,66 215,78.536 215,94 C215,109.464 202.464,122 187,122 L214,122 C229.464,122 242,134.536 242,150 C242,165.464 229.464,178 214,178 L187,178 C202.464,178 215,190.536 215,206 C215,221.464 202.464,234 187,234 L150,234 C134.536,234 122,221.464 122,206 C122,190.536 134.536,178 150,178 z" fill="#FFFFFF" opacity="0.6"/>
    </g>
  </g>
</svg>
